<svg xmlns="http://www.w3.org/2000/svg" viewBox="0 0 511.81 511.9"><defs><style>.cls-1{fill:#fff;}</style></defs><title>Map</title><g id="Capa_2" data-name="Capa 2"><g id="Capa_1-2" data-name="Capa 1"><path class="cls-1" d="M0,511.9V0H511.81V511.9Zm452.66-67.44H67.44V336.08L97.07,363l20.23-24.12c-1.36-1.26-2.46-2.23-3.51-3.26C99.19,321.24,84.51,307,70.1,292.4A11.6,11.6,0,0,1,67.22,285c-.18-36.5-.12-73-.12-109.5v-6.34h63c-5.14-15.36-10-30-15.09-44.61-.43-1.22-2.93-2.41-4.48-2.43q-29.5-.24-59,0a40.61,40.61,0,0,0-10.82,1.58c-13,3.77-20.76,15.7-20.77,31.8q0,152,0,304c0,20.13,12.45,32.43,33,32.44q207.24.06,414.49,0c20,0,32.47-12.36,32.48-32.5q.09-152.5,0-305c0-20.16-12.43-32.32-32.59-32.4-16.5-.06-33,0-49.5,0H366.36l-16.76,47.34H452.78v71.9c-18.52,2.31-36.38,5.82-53.81,12.67l10.73,28.44,43-10.14ZM240.15,295.09c1.23-1.95,2.14-3.28,2.95-4.68,14.86-25.83,30.4-51.29,44.37-77.59,14.43-27.16,27.54-55,40.82-82.78a63.71,63.71,0,0,0,5.62-37.45C328,51.71,295.62,18.75,255.24,13c-43.11-6.14-83.39,15-100.68,53.35-9.3,20.61-12.44,41.72-2.6,63.26,2.35,5.14,4.29,10.47,6.63,15.62,18.29,40.2,40.07,78.56,62.11,116.77C227,272.93,233.49,283.76,240.15,295.09Zm-1,119.13c28-7.49,53.5-18.74,75.57-37.76l-20.43-23.87c-18.65,16-40.46,25.14-64.09,31.47Zm-33.59-28.14c-24.21-3.92-44.58-15.64-64.42-28.92l-17.56,25.27c15.75,15,62.82,35.43,78.07,34Zm179.22-90.19-16.89-26.66c-25.3,15.3-41.89,37.37-54.29,63.51l25.46,18.11C350.76,329.17,362.63,308.24,384.83,295.88Z"/><path d="M452.66,444.46V272.18l-43,10.14L399,253.88c17.43-6.85,35.29-10.36,53.81-12.67v-71.9H349.59L366.36,122h51.49c16.5,0,33,0,49.5,0,20.16.08,32.58,12.25,32.59,32.4q.12,152.5,0,305c0,20.14-12.43,32.5-32.48,32.5q-207.24,0-414.49,0c-20.58,0-33-12.3-33-32.44q0-152,0-304c0-16.1,7.73-28,20.77-31.8a40.61,40.61,0,0,1,10.82-1.58q29.5-.23,59,0c1.55,0,4,1.21,4.48,2.43,5.13,14.57,10,29.25,15.09,44.61h-63v6.34c0,36.5-.06,73,.12,109.5a11.6,11.6,0,0,0,2.88,7.43c14.42,14.55,29.09,28.84,43.7,43.2,1,1,2.14,2,3.51,3.26L97.07,363l-29.63-26.9V444.46Z"/><path d="M240.15,295.09C233.49,283.76,227,272.93,220.7,262c-22-38.21-43.82-76.56-62.11-116.77-2.34-5.15-4.28-10.48-6.63-15.62-9.85-21.54-6.7-42.66,2.6-63.26C171.85,28,212.13,6.87,255.24,13,295.62,18.75,328,51.71,333.9,92.59A63.71,63.71,0,0,1,328.28,130c-13.28,27.75-26.39,55.62-40.82,82.78-14,26.3-29.51,51.77-44.37,77.59C242.29,291.81,241.38,293.14,240.15,295.09Zm47.32-189.46c-.54-26.07-21.95-47-47.61-46.54a47.39,47.39,0,0,0-46.77,48.41c.54,25.73,22.44,46.68,48.14,46.06C267.21,152.93,288,131.38,287.47,105.63Z"/><path d="M239.2,414.22l-9-30.16c23.63-6.33,45.44-15.46,64.09-31.47l20.43,23.87C292.7,395.48,267.23,406.73,239.2,414.22Z"/><path d="M205.61,386.07l-3.91,30.32c-15.25,1.47-62.32-19-78.07-34l17.56-25.27C161,370.44,181.4,382.15,205.61,386.07Z"/><path d="M384.83,295.88c-22.2,12.36-34.06,33.28-45.72,55l-25.46-18.11c12.4-26.14,29-48.21,54.29-63.51Z"/><path class="cls-1" d="M287.47,105.63c.53,25.75-20.27,47.3-46.25,47.93-25.7.62-47.6-20.33-48.14-46.06a47.39,47.39,0,0,1,46.77-48.41C265.53,58.63,286.94,79.56,287.47,105.63Z"/></g></g></svg>