<svg xmlns="http://www.w3.org/2000/svg" viewBox="0 0 220.3 223.24"><defs><style>.cls-1{fill:#1c1c1c;}</style></defs><title>Recurso 5</title><g id="Capa_2" data-name="Capa 2"><g id="Capa_1-2" data-name="Capa 1"><path class="cls-1" d="M32.2,189c-1.31-1.25-2.59-6-3.82-4.06-1.23-.39-2.43.46-3.58-4.19-1.15-5.25-2.27,3.42-3.34-4.32-1.07-6.25-2.1-5.49-3.1-4.43-1-1.67-1.94-3.24-2.86-2.25-.91-.24-1.78-4.82-2.61-6.92-.62-1-1.22-4.34-1.8-1.52-.58,3.33-1.13-4.17-1.67-5.6-1.07.34-2-2.12-2.93-7.29-.88-2.42-1.68.61-2.38-5.66-.7-6-1.32-6.54-1.84-9.32-.26-2.11-.5-7.43-.72-6.15-.22-5.18-.41-5.41-.58-4.59-.17,1.07-.32-1.79-.45-6.19C.4,110.74.3,113.6.22,118.08c-.16-4.66-.23-8.63-.22-8.23,0,3.24.13-7.69.33-7.19.1,8.42.22,4.91.37.57.14.23.31-5.47.5-8.31.38-1.25.85-7.36,1.41-7.55C3,87.41,3.5,76.89,4,81.68c.52-1.6,1.09-1.05,1.72-5.55.62,4.7,1.3-5.5,2-5.65.36-4.07.74-1.08,1.12-5.14.39-2.42.79-4,1.2-.14.83-.84,1.7-7.12,2.63-5.62.93,4.08,1.9-5,2.93-4.91,1-6.21,2.11-2.32,3.23-5.08,1.13-1.4,2.31-4.27,3.54-4.95,1.64.61,3.37-5.17,5.19-6.36,1.82,2.15,3.73-6.79,5.73-6.06,1.58-2.87,3.2-.1,4.85-3.87,1.66-5,3.35-6.37,5.07-4.75,1.73-5,3.49-5.17,5.28-5.5s3.61-2.19,5.46-1.71c1.85-1,3.72-2.33,5.63-3.14,1.9,4.59,3.83-1.25,5.77-2.67,3.89.81,7.87-3.51,11.92-4.41C80,.92,82.72,5.42,85.46,4,88.2,1.66,91,3,93.74,2.45A31.22,31.22,0,0,1,102.1.12a16.8,16.8,0,0,1,8.4,1.11c5.6-1.73,11.2,0,16.73,1.24,5.53,5.38,11-1.2,16.36,3.71,5.35-1.88,10.59-.48,15.65,6.17A105.14,105.14,0,0,1,173.83,21q3.49,2.46,6.79,5.23T187,32c1.72.52,3.38,2,5,5.24,1.59.8,3.1,3.93,4.56,5.45,1.45-1.85,2.83,3,4.15,5.28,1.32,4,2.56,6.1,3.75,6.16,1.18,1.65,2.3-.36,3.34,5.39,1,2.67,2,5.56,2.94,6.65,1.83,6.59,3.39,4.75,4.7,12.51,1.3,3.64,2.34,2.46,3.12,12.83.78-.58,1.3,10.09,1.56,13q.24,3.91.2,7.83t-.36,7.81c-.42,3-1.21,13.74-2.35,15.45-1.15,5-2.65,7.41-4.52,15-1.86,4-4.08,12.8-6.66,14.33-1.29,1.74-2.66,5.27-4.12,6.83-1.46,3.09-3,6.91-4.64,6.57-1.64,1.72-3.36,4.67-5.17,4.92a85.88,85.88,0,0,0-5.68,7.3c-3.79,2.47-7.8,12.36-12,10.07-4.18,4.93-8.54,5.29-13,8.08-4.49,1.11-9.13-.33-13.86,6.09a110.36,110.36,0,0,1-14.45,4.1c-4.89,1-9.84,3.25-14.81,2.11-5,5.41-10-1.14-14.95.11-5,2.84-9.94.8-14.85-1.88-4.91-2.11-9.76-1.79-14.52-3.88-4.76,1.3-9.43-7.55-14-5.88q-3.83-1.94-7.52-4.19t-7.23-4.82C40.91,197.73,36.42,187.9,32.2,189ZM42,179.75c1.91,3.87,3.84,5.67,5.79,4.41,2,3.84,3.93,3.27,5.92,5.32,2,1.28,4,1.47,6.06,4.11,2,.38,4.1,2.89,6.19,3.6,2.08,1.93,4.19,1.09,6.32,3.14a28.39,28.39,0,0,0,6.44,2.53A40.89,40.89,0,0,0,92,206.47c4.5-2,9.09-.61,13.75,1.49,4.66-3,9.41-4.76,14.23-.65a108.68,108.68,0,0,0,14.69-2.82,113.5,113.5,0,0,0,15.58-5.28c4.89-2.37,9.49-8,13.78-7.17,4.29-4.83,8.27-8.52,11.95-9,3.67-4.2,7-6.91,10.09-10.8,2.29-2.92,4.4-3.06,6.33-9.24,1.93.25,3.69-9,5.26-10.2,1.57-2.13,3-6,4.18-11.13,1.21-3.52,2.24-5.18,3.09-12a103.47,103.47,0,0,0,2-16.12A91.57,91.57,0,0,0,206.28,98a64.88,64.88,0,0,0-1.28-8c-.53-2.33-1.17-6.32-1.91-6.84-.74-5-1.59-5.4-2.54-7.86-.95-3-2-3.88-3.16-6.25-1.15.13-2.41-1.91-3.77-7.32-1.36.8-2.82-2-4.37-6.1-1.56-3.37-3.21-6-5-6.45-1.76-3.85-3.61-5.44-5.56-6.27-1.43,1.55-2.86,1.22-4.29,4.29-1.43-1.65-2.86,2.11-4.29,4.29-1.43,4.45-2.86,3.62-4.29,4.29-1.43,3.32-2.86,2.06-4.28,4.28-1.43-.3-2.85,4.05-4.28,3.32A10.55,10.55,0,0,0,153,68.7c-1.43,2-2.85,2.58-4.28,5.45-1.43,1.72-2.85,3.11-4.28,3.1-1.9,4.08-3.8,5.63-5.7,5.7-1.9,3.46-3.8,3.5-5.7,5.7a39.65,39.65,0,0,1-5.69,4.63,31.72,31.72,0,0,0-5.69,6.76,32.08,32.08,0,0,0-5.69,5.6c-1.9,2.58-3.79,6.63-5.69,5.77-1.9,3.18-3.79,3-5.69,5.27-1.9.58-3.79,5.89-5.69,6.11-1.9,4.35-3.79,1-5.69,5.69-1.9,1.85-3.79,6.15-5.69,5.69a18.94,18.94,0,0,1-5.69,5.89c-1.9,1.14-3.79,6.13-5.69,5.49-1.9,2.76-3.8,7.52-5.69,6.67a36.46,36.46,0,0,1-5.7,4.72c-3.8,1.31-7.6,8.08-11.4,11.4-1.9,3-3.8,3.19-5.7,3.53C45.78,173.27,43.88,175.63,42,179.75Z"/></g></g></svg>