<svg xmlns="http://www.w3.org/2000/svg" viewBox="0 0 427.65 255.48"><defs><style>.cls-1{fill:#fafafa;}</style></defs><title>Recurso 1</title><g id="Capa_2" data-name="Capa 2"><g id="Capa_1-2" data-name="Capa 1"><path class="cls-1" d="M427.65,252.61c-2.18-6.91-4.35,8.68-6.53-.13-4.53,2-9.07-1.63-13.6,0-4.53,3.21-9.07,3.67-13.6,0-4.53-1.64-9.07,4.28-13.6,0-1.81-4.85-2.63-1.86-3.28-2.24a16.72,16.72,0,0,1-2.52-6.58L372,237.12c-1.68-7.5-3.37-13.42-5.06-13.15-1.69-5-3.38-3.58-5.07-13.14-1.69-9.24-3.38-6.87-5.08-13.14-1.7.15-3.39-11-5.09-13.13-.94-5.45-1.43-5.2-2.33-4.22-.9-5.53-2.21-2.89-4.78-.57-5.06,1.5-10.12,4.89-15.18.07-2.53,0-5.06-2.05-7.59,0-2.53,7.45-5.06,2.12-7.59,0-3.8,1.47-7.59.46-11.39.06a12,12,0,0,0-11.39.06c-3.8-1.37-7.59-7.46-11.39.06-3.8-.39-7.59.79-11.39.07-2.1-3.38-4.21.08-6.31.33-2.28-.07-3.34,1-4.08,3-1.29,2.84-2.6,3.37-3.9,10.67-1.3,2-2.61,5.64-3.92,10.66-1.31,1.69-2.62,9.51-3.93,10.66-1.31.92-2.62,13.73-3.92,10.66-1.48,5.11-3,.54-4.41,12.16-1.46.29-2.9,11.55-4.34,12.18-.51-2.37-1.17-4.41-2.78,2-4.39-9.18-8.77-1.55-13.16-.14l-13.16-.11-13.16-.12a47.51,47.51,0,0,1-5-.6c.41-1.11.69-1.89,1-2.66l6.21-16.15c2.07-3.37,4.14-9.9,6.21-16.15,2.07-4.54,4.14-2.37,6.21-16.15,2.07-1.89,4.14-7.42,6.21-16.15,2.07-2,4.14-7,6.21-16.15,2.07-6.86,4.14-10.77,6.21-16.15l18.62-48.45,6.2-16.15c2.07-5.28,4.14-9.85,6.2-16.15l6.2-16.15,6.2-16.15,6.2-16.15c2.07-5.06,4.13-9.69,6.2-16.16,1.09-.47,2.49-.14,5.65-4.13.54-2.25,1.12-4,1.68-.34,1.67.57,3.35,3.24,5,0h5a19.69,19.69,0,0,0,2.13.25c3.67-1.34,7.34,1.2,11,.16,3.67,2.7,7.34-3,11,0,2.28,3.45,3.37-2,4.26,2.83,2.14,5,4.28,10.43,6.42,15.7,2.14,2.29,4.28,10.27,6.42,15.7,2.14,10.52,4.28,13.32,6.42,15.7,2.14,3.69,4.28,6.34,6.42,15.7a80.72,80.72,0,0,1,6.42,15.7c2.14,6.13,4.28,5,6.43,15.7,2.14,1.86,4.28,14.65,6.43,15.7,2.14-.53,4.28,13.38,6.43,15.7a155.79,155.79,0,0,1,6.43,15.7c2.14.46,4.29,11.51,6.43,15.7,2.14,10.08,4.29,14.12,6.43,15.7,2.14,2.75,4.29,13.38,6.43,15.7,2.14,4.83,4.29,11.9,6.43,15.7,2.14,13.55,4.29,5,6.43,15.7,2.14,7.55,4.29,13.37,6.43,15.7a18,18,0,0,1,2.36,5.43c.81-5.26,1.64,14,2.44,5.4Zm-92.6-111.39c-.33-1-.46-1.52-.63-2-7.11-19.14-14.18-38.29-21.38-57.4-2.42-6.43-5.16-12.75-7.83-19.08a13.82,13.82,0,0,0-1.92-2.61l-29.78,81.36C294.12,141.86,314.41,142.13,335.05,141.22Z"/><path class="cls-1" d="M0,250c1-1.13,2-1,3.05-7.63,1-2.15,2-4.89,3-7.65a151.43,151.43,0,0,0,5.6-14.61c1.87-4.09,3.74-11.24,5.6-14.61,1.87-.07,3.73-12.61,5.6-14.62,1.87-7.86,3.73-11.75,5.6-14.62,1.87-4.73,3.73-9.06,5.6-14.62,1.87-6.93,3.73-12.25,5.6-14.62,1.87-2.57,3.73-8.53,5.6-14.62,1.87-3.29,3.73-9.62,5.59-14.62,1.86-3.38,3.73-12.58,5.59-14.62C58.31,97,60.18,98,62,88.54c1.86-4,3.72-18.54,5.59-14.62.89,4,2.21-3.87,4.64-3.35,4,4,8,3.54,12-.12,4-6.07,8-1,12-.21,1.55,2.73,1.72,1.27,2.12,2C100,68.82,101.58,85,103.18,84c1.6,1.89,3.21,10,4.81,11.75,1.6,2.61,3.21,9.43,4.81,11.75,1.6,6.52,3.21,7.92,4.81,11.75,1.6,3.57,3.21,9.67,4.81,11.75,2,3.41,4,9.34,6,14.79a96,96,0,0,1,6,14.79c2,5.48,4,8.22,6,14.79,2,1.69,4,10.8,6,14.79,2-1.09,4,.5,6,14.79,1,3,2,6.62,3,9.53,1,4.28,2,2.25,3,5.27,1-.26,2-.06,3,7.72,1-1.13,2,1,3,7.07,1,6.93,2,6.33,3,7.4,1,2.7,2,4,3,7.4.27,1.82.5,4,.85,2.27a20.87,20.87,0,0,0-3.93.55c-4.33,4-8.65-6.2-13,.18-4.33-4.12-8.65.78-13,.22-1.68,3.58-2-.82-2.5-2.08-1.57-2.77-3.13-10.33-4.7-12.22-1.57-10-3.14-11.92-4.71-12.22-1.57-7-3.13-11.61-4.69-12.23-1.56,2.9-3.11-6.51-4.66-12.24-.67-5.86-1.54-5.5-3.3-2.19-4.44,2-8.87,1-13.31,0-4.44-3.3-8.87-7.23-13.31,0-4.44-8.59-8.87-5.33-13.31,0-4.44,1.38-8.87-6.23-13.31,0-4.44,2.3-8.87,5-13.31,0-1.8,1-2.49,3-3.06,2.19-1.44,11.46-2.9,7.19-4.35,12.24-1.45,3.65-2.91,15.4-4.37,12.23-1.46,1.41-2.91,10.53-4.36,12.23q-2.18,6.12-4.34,12.24a2.55,2.55,0,0,1-2.92,2.07c-4-.09-8.07-.13-12.1-.18s-8.07-2.15-12.1-.17c-1,2.45-2-1.79-3.07-.85C0,254.9,0,256.25,0,250ZM83.49,103,57.76,174.33a24.75,24.75,0,0,0,3.54.56q23,.07,46,0c2.84,0,3-.47,2-3.09q-11.93-32.08-23.85-64.17C85,106.26,84.32,104.91,83.49,103Z"/></g></g></svg>