<svg xmlns="http://www.w3.org/2000/svg" viewBox="0 0 324.66 328.8"><defs><style>.cls-1{fill:#fafafa;}</style></defs><title>Recurso 7</title><g id="Capa_2" data-name="Capa 2"><g id="Capa_1-2" data-name="Capa 1"><path class="cls-1" d="M292.64,292.52V176c0-1.61-7.27.53-14.54,3.43s-14.54,7.15-14.54,3.43c0-4.46-7.21-22.76-7.21-19.23,5.89-1.26,11.86-5.54,17.92-5.44a124.77,124.77,0,0,0,18.47-3.13V106.43H222.93l11.34-32h68.3c13.63.05,22,8.28,22,21.91,0,6.88,0,12.08,0,20.63,0,7.86,0,12.82,0,20.63,0,7.25,0,11.7,0,20.63,0,7.5,0,11,0,20.63,0,4.78,0,12.18,0,20.61,0,7.37,0,17,0,20.64,0,6.18,0,11.36,0,20.58,0,7.71,0,13.58,0,20.68,0,8,0,15.82,0,20.63,0,8.39,0,14.32,0,20.63,0,6.81-2.1,12.31-5.9,16.1s-9.29,5.93-16.07,5.88c-10.38,0-20.76,0-31.15,0s-20.76.1-31.15,0c-5.19-.08-10.38-.08-15.57-.06-5.19-1.6-10.38,2.53-15.57.06-5.19,9.37-10.38-2.32-15.57-.14-5.19-4.08-10.38,2-15.57.14-5.19.06-10.38-.42-15.57.07-5.19,2.65-10.38-3.52-15.57-.07-5.19-1.64-10.38-5.36-15.57.07-5.19.16-10.38-1-15.57-.07-5.19,1.32-10.38,4.11-15.57-.09-5.19,6.7-10.38,4.62-15.57.09-5.19-4.74-10.38-1.89-15.57,0-5.19-3.27-10.38-2.74-15.57,0-5.19.95-10.38-7-15.57,0-5.19,3-10.38-3.32-15.57,0-7,.11-12.54-2.08-16.38-5.86S0,309.47,0,302.66V97.06c0-3.55,1.31-11.79,3.72-13.87C6.13,78.5,9.64,76,14,75.55c2.38-.31,4.84-.63,7.32-1.07,6.65,1.49,13.3-2.68,20-.08,6.65,2.9,13.3,1.18,20,.08,1-.42,2.71,1,3,1.64C66,81.43,67.72,86.48,69.41,91c1.69,5.75,3.37,11.5,5.09,15.29,0-1.8-10.65-3.08-21.3,0-10.65,1.65-21.3-3.08-21.3,0v4.29c0,3,0,11,0,12.15,0,2.15,0,5.81,0,12.53,0,3.46,0,7.32,0,13.39,0,4.35,0,8.36,0,11.3,0,6.16,0,6.65,0,12.32,0,3.51,0,7.37,0,12.37,0,3.09.73,8.44,1.95,5,4.88.39,9.79,11.77,14.73,14.66,4.93,8.54,9.89,11.39,14.83,14.56.68,1.72,1.45,4.39,2.37,2.2,0-.08-13.71,11.92-13.71,16.33,0-.47-5-6.47-10-9.1-5-6.73-10-8.06-10-9.1v73.29h158c18.23.15,35.7,1.38,50.89,0a115.06,115.06,0,0,0,37.22,0C287.32,292.4,292.64,290.48,292.64,292.52Z"/><path class="cls-1" d="M148.27,272.06c0,.24-6.09-20.37-6.09-20.4,4-2.82,7.91-2.12,11.74-4.64,3.83-1.07,7.56-3.79,11.19-3.55,3.63,1.28,7.16-4.25,10.56-5.86a85.86,85.86,0,0,1,9.85-7.24c0-2.08,13.82,19.66,13.82,16.14-3.72.43-7.59,5.46-11.6,7.76-4,3.41-8.15,4.66-12.42,7.93-4.27,1.73-8.66,4.36-13.18,5.53C157.64,269.67,153,272.36,148.27,272.06Z"/><path class="cls-1" d="M125.55,253c0-.41-2.64,22.33-2.64,20.51-5.16,2.4-15.69-6-26.27-7.32-10.58-6.94-21.2-8.07-26.53-15.67C70.11,248.31,82,236,82,233.45c3.35,6.77,6.72,8.42,10.16,7.35,3.43,2.79,6.93,5.64,10.51,4.82,3.59-1.15,7.26,3.4,11.07,4.49C117.53,252.28,121.46,254.68,125.55,253Z"/><path class="cls-1" d="M246.76,192c-3.75,4.39-7.07,4.59-10.06,7-3,1-5.64,5.71-8.08,9.26-2.43,7.67-4.65,12.73-6.74,11.22-2.1,1.49-4.08,7.57-6,9.75,0-2.13-17.22-12.45-17.22-12.25,2.1-3.48,4.37-7.59,6.87-12.41s5.22-8,8.22-11.81c3-5.1,6.27-6.27,9.85-8.93,3.59-6.75,7.5-8.25,11.77-9.8C235.34,173.87,246.76,188.71,246.76,192Z"/><path class="cls-1" d="M212.32,54.54c-4-27.65-25.89-49.94-53.2-53.83a68.11,68.11,0,0,0-28,1.75A65.8,65.8,0,0,0,107.4,15c-6.85,9-12.47,15.8-16.37,21.8-3.14,7.47-5.25,11.87-5.74,21.15-.49,7.88.65,16.14,4,21.63,1.59,2.21,2.9,6,4.48,10.56,2.06,4.42,4.19,9.08,6.37,13.5,2.18,1.21,4.42,8.72,6.71,13.32s4.62,10.46,7,13.18c2.37,8.6,4.77,12.78,7.19,13.06,2.42,4.56,4.87,8,7.34,12.94,2.46,3.89,4.94,6.37,7.42,13,2.13,2.09,4.29,8.18,6.49,11.09,2.19,2.38,4.42,5.84,6.67,11.29.83.49,1.45,2.82,2-3.19,2.51-2.89,5.05-12.48,7.6-13.22,2.54-2,5.09-11.73,7.63-12.9,2.53-9.36,5-11.56,7.52-13.11,2.47-3.94,4.9-9.43,7.27-13.25,2.44-3.58,4.82-10.27,7.17-14.79,2.34-4.32,4.65-8.36,6.93-13.05,4.56-9.35,9-18.76,13.51-28.14A43.09,43.09,0,0,0,212.32,54.54Zm-33.67,21.4a27.45,27.45,0,0,1-6.65,10,25.36,25.36,0,0,1-15,9.43,16.52,16.52,0,0,1-7.32.41c-5.34,1.3-10.44-.39-14.95-3.1a19.45,19.45,0,0,1-7.72-5.8l-.09-.08a15.55,15.55,0,0,1-2.41-2.26,25.08,25.08,0,0,1-4.6-6.64c-1.71-3.81-2.71-5.6-2.8-13.28,0-.62,0-1.3,0-2a32.12,32.12,0,0,1,.72-6.42,10.49,10.49,0,0,1,1.44-4c.05-.1.1-.2.15-.29l0-.11c.82-4,1.84-5.4,3-6.45,1-1.73,2.21-3.11,3.5-3.58a5.59,5.59,0,0,1,4.77-3.57c1.62-1.07,3.36-2.15,5.19-3.4l.08-.12.22-.08,0,0h.07a20.21,20.21,0,0,1,5.83-.87,25,25,0,0,0,5.56-1.4c.23-.12.46-.25.7-.39l0,.1.26-.11h0a46.79,46.79,0,0,1,6.1,1.24c6.28,1.22,11.94,2.56,16.38,7.76l0,0c5.82,6.87,9.53,9.6,9.71,22.44A32.58,32.58,0,0,1,178.65,75.93Z"/></g></g></svg>