<svg xmlns="http://www.w3.org/2000/svg" viewBox="0 0 101.17 177.07"><defs><style>.cls-1{fill:#1c1c1c;}</style></defs><title>Recurso 4</title><g id="Capa_2" data-name="Capa 2"><g id="Capa_1-2" data-name="Capa 1"><path class="cls-1" d="M101.17,91.36c-.24,3.6-.59,8.12-1,4.69-.44,3.61-1,.32-1.55.66-.59,1.67-1.23,2.78-1.91,3-.68-3.46-1.39,2-2.1,1.36-.91,6.36-1.81,1.52-2.72,2.7-.91,1.44-1.81-.2-2.72,2.7-.91.12-1.81,3.08-2.72,2.7-.91.11-1.81,2.77-2.72,2.7-.91,1.15-1.81,3.17-2.72,4.57s-1.81,2.18-2.72.83c-1.81,1.78-3.63,2.64-5.44,5.4-1.21,2.14-2.42,2.26-3.63,3.6-1.21.37-2.42.92-3.63,3.6-1.21-.2-2.42,2.94-3.63,3.66-1.21,2.56-2.42,2.14-3.62,3.55a10.48,10.48,0,0,1-3.62,4.83,27.55,27.55,0,0,0-3.62,2.38c-1.21,2.71-2.42,1.51-3.62,3.22-1.21-1.09-2.42-.32-3.62,4-1.21,1.4-2.42,3.05-3.62,4.43a8.22,8.22,0,0,1-3.62,2.78c-2.42,3.32-4.83,6.1-7.25,7.21-2.42,3.69-4.83,4.35-7.25,7.21-1.83,2.37-3.83,4.53-6,3.56a11.68,11.68,0,0,1-3.35.35c-1.15-3.47-2.34-.63-3.57-.61-1.25,2-2.37-3.81-3.37-1.69-1,.51-1.87-.13-2.62-2-.75.36-1.37-4.65-1.86-3.66a27.24,27.24,0,0,0-1.09-2.71,14.88,14.88,0,0,1-.2-3.19c.07,1.2.26-.34.59-3,.32-3.21.77-.71,1.33-2.89.56-1.48,1.24-3.29,2-2.33,1-2.72,1.93,1.66,2.9-.54,1-.13,1.93-2.47,2.9-5.23,1.93-.75,3.87-4,5.8-5.77,1.93-.71,3.87-2.07,5.8-5.77,1.93-.54,3.87-4.83,5.8-5.77l2.9-2.89c1-2,1.93,1.37,2.9-2.89,2-.31,4.07-6.56,6.1-6.07,2-1.91,4.07-1.56,6.11-6.07,2-3.51,4.07-7.27,6.11-6.07,2-1.08,4.07-4,6.11-6.07L69.62,89.78c.37-.37.81-.67,1.84-1.49a12.75,12.75,0,0,1-2.13-1.34L47.47,65.22C45,62.81,42.61,60.91,40.19,58c-2.43.73-4.85-5-7.28-7.24-2.43.53-4.85-3.12-7.28-7.24-2.43-1.34-4.85-5.7-7.28-7.24-2.43-6-4.85-7.66-7.28-7.24L3.78,21.77A12.55,12.55,0,0,1,1.46,6.94,12.7,12.7,0,0,1,14.78.16a13.38,13.38,0,0,1,7.28,3.73c2.19.94,4.38,3,6.56,6.47,2.18,2.41,4.36,1.91,6.53,6.5,2.17.74,4.35,5.24,6.53,6.51,2.25,6.67,4.51,3.56,6.76,6.73,2.25.22,4.51,3.83,6.76,6.73,2.25-.24,4.51,7.18,6.76,6.73,2.25,1.19,4.51,4.14,6.76,6.73,2.25,3.79,4.51,3.3,6.77,6.72,1.13,2.2,2.26,2.54,3.38,3.36,1.13,1.72,2.26,1.74,3.39,3.36s2.26,1.66,3.39,4.27c1.13.81,2.26,2.46,3.39,2.45,1.13,2,2.26,6.31,3.39,3.07,1.13.86,2.26-2.69,3.39,3.64,1.24,1.12,2.36,6,3.27,3.91.91-5.67,1.63,2,2.08,4.61v5.69Z"/></g></g></svg>